<svg xmlns="http://www.w3.org/2000/svg" viewBox="-155 463 477.2 300">
  <path d="M290.7 463.1h-414.1c-17.4 0-31.6 14.2-31.6 31.6v236.6c0 17.4 14.2 31.6 31.6 31.6h414.1c17.4 0 31.6-14.2 31.6-31.6V494.7c-.1-17.4-14.2-31.6-31.6-31.6zm0 294.8h-414.1c-14.7 0-26.6-11.9-26.6-26.6V494.7c0-14.7 11.9-26.6 26.6-26.6h414.1c14.7 0 26.6 11.9 26.6 26.6v236.6c0 14.7-12 26.6-26.6 26.6z" fill="#999"/>
  <path d="M50.1 541.2h69.8v143.7H50.1z" fill="#ff5f00"/>
  <path d="M50.1 613c0-29.1 13.6-55.1 34.9-71.8-15.5-12.2-35.2-19.5-56.5-19.5-50.5 0-91.4 40.9-91.4 91.4 0 50.5 40.9 91.4 91.4 91.4 21.3 0 40.9-7.3 56.5-19.5-21.3-16.9-34.9-42.9-34.9-72z" fill="#eb001b"/>
  <path d="M232.8 613c0 50.5-40.9 91.4-91.4 91.4-21.3 0-40.9-7.3-56.5-19.5 21.3-16.7 34.9-42.7 34.9-71.8s-13.6-55.1-34.9-71.8c15.5-12.2 35.2-19.5 56.5-19.5 50.5-.2 91.4 40.7 91.4 91.2zm-8.7 56.6v-2.9h1.2v-.6h-3v.6h1.2v2.9h.6zm5.9 0v-3.5h-.9l-1.1 2.4-1.1-2.4h-.9v3.5h.7v-2.7l1 2.3h.7l1-2.3v2.7h.6z" fill="#f79e1b"/>
</svg>