<svg id="Layer_1" xmlns="http://www.w3.org/2000/svg" viewBox="-155 463 477.2 300">
  <style>
    .st2{opacity:.5;enable-background:new}.st2,.st3{fill:#fff}.st7{display:none}.st14{fill:#2e77bc}
  </style>
  <g id="Discover">
    <linearGradient id="SVGID_1_" gradientUnits="userSpaceOnUse" x1="83.625" y1="767.106" x2="83.625" y2="472.986" gradientTransform="matrix(1 0 0 -1 0 1232)">
      <stop offset="0" stop-color="#fff"/>
      <stop offset="1" stop-color="#cfd0d0"/>
    </linearGradient>
    <path d="M322.2 732.3c0 16.4-13.4 29.8-29.8 29.8h-417.5c-16.4 0-29.8-13.4-29.8-29.8V493.7c0-16.4 13.4-29.8 29.8-29.8h417.5c16.4 0 29.8 13.4 29.8 29.8v238.6z" fill="url(#SVGID_1_)"/>
    <linearGradient id="SVGID_2_" gradientUnits="userSpaceOnUse" x1="110.413" y1="460.608" x2="110.413" y2="671.692" gradientTransform="matrix(1 0 0 -1 0 1232)">
      <stop offset="0" stop-color="#f26722"/>
      <stop offset="1" stop-color="#ec8023"/>
    </linearGradient>
    <path d="M-101.4 762.1h393.7c16.4 0 29.8-13.4 29.8-29.8V568.2c-47.8 61.1-176.4 179.9-423.5 193.9z" fill="url(#SVGID_2_)"/>
    <path class="st2" d="M-125 464.9h417.2c16.5 0 29.9 13.4 29.9 29.8v-1c0-16.4-13.5-29.8-29.9-29.8H-125c-16.4 0-29.9 13.4-29.9 29.8v1c0-16.4 13.5-29.8 29.9-29.8zm417.3 295.3H-125c-16.5 0-29.9-13.5-29.9-29.9v1c0 16.5 13.5 29.9 29.9 29.9h417.2c16.5 0 29.9-13.5 29.9-29.9v-1c.1 16.4-13.4 29.9-29.8 29.9z"/>
    <circle class="st3" cx="97.2" cy="578.5" r="31.5"/>
    <path class="st3" d="M-72.2 593.6c-3.7 3.3-8.4 4.8-16.1 4.8h-3.2v-39.6h3.2c7.6 0 12.2 1.4 16.1 4.9 4.1 3.6 6.5 9.1 6.5 14.9-.1 5.7-2.5 11.4-6.5 15zM-86 548.8h-17.3v59.7h17.2c9.1 0 15.7-2.2 21.5-6.9 6.9-5.7 10.9-14.1 10.9-23 .1-17.6-13.3-29.8-32.3-29.8m37.8 59.7h11.7v-59.7h-11.7v59.7m40.5-36.9c-7.1-2.6-9.1-4.3-9.1-7.6 0-3.8 3.7-6.7 8.7-6.7 3.5 0 6.5 1.4 9.5 4.9l6.2-8c-5.1-4.4-11.1-6.7-17.7-6.7-10.6 0-18.8 7.4-18.8 17.1 0 8.3 3.8 12.4 14.8 16.4 4.6 1.6 7 2.7 8.2 3.4 2.4 1.5 3.5 3.7 3.5 6.2 0 4.9-3.9 8.4-9.1 8.4-5.6 0-10.1-2.8-12.8-8l-7.6 7.3c5.4 7.9 11.9 11.3 20.9 11.3 12.2 0 20.8-8.1 20.8-19.6-.2-9.2-4.2-13.5-17.5-18.4m20.9 7c0 17.6 13.9 31.2 31.8 31.2 5.1 0 9.3-1 14.7-3.5v-13.7c-4.7 4.7-8.8 6.6-14.2 6.6-11.8 0-20.3-8.5-20.3-20.6 0-11.4 8.6-20.5 19.7-20.5 5.6 0 9.8 2 14.7 6.8v-13.7c-5.2-2.6-9.4-3.7-14.4-3.7-17.6-.1-32 13.8-32 31.1M155 588.8l-16-40h-12.8l25.5 61.2h6.3l26-61.2h-12.7l-16.3 40m34.4 19.7h33.3v-10.1h-21.6v-16.1h20.8v-10.2h-20.8v-13.3h21.6v-10h-33.3v59.7m56.2-32.3h-3.4v-18.1h3.6c7.4 0 11.3 3.1 11.3 8.8.1 6.1-3.9 9.3-11.5 9.3zm23.6-9.8c0-11.2-7.8-17.6-21.3-17.6h-17.4v59.7h11.7v-24.1h1.5l16.3 24.1h14.4l-19-25.1c8.9-1.9 13.8-7.9 13.8-17"/>
    <radialGradient id="SVGID_3_" cx="97.243" cy="654.784" r="37.878" gradientTransform="matrix(1 0 0 -1 0 1232)" gradientUnits="userSpaceOnUse">
      <stop offset="0" stop-color="#fff"/>
      <stop offset="1" stop-color="#f26722"/>
    </radialGradient>
    <circle cx="97.2" cy="577.2" r="31.5" fill="url(#SVGID_3_)"/>
    <path d="M-72.2 592.3c-3.7 3.3-8.4 4.8-16.1 4.8h-3.2v-39.6h3.2c7.6 0 12.2 1.4 16.1 4.9 4.1 3.6 6.5 9.1 6.5 14.9-.1 5.7-2.5 11.4-6.5 15zM-86 547.4h-17.3v59.7h17.2c9.1 0 15.7-2.2 21.5-6.9 6.9-5.7 10.9-14.1 10.9-23 .1-17.5-13.3-29.8-32.3-29.8m37.8 59.7h11.7v-59.7h-11.7v59.7m40.5-36.7c-7.1-2.6-9.1-4.3-9.1-7.6 0-3.8 3.7-6.7 8.7-6.7 3.5 0 6.5 1.4 9.5 4.9l6.2-8c-5.1-4.4-11.1-6.7-17.7-6.7-10.6 0-18.8 7.4-18.8 17.1 0 8.3 3.8 12.4 14.8 16.4 4.6 1.6 7 2.7 8.2 3.4 2.4 1.5 3.5 3.7 3.5 6.2 0 4.9-3.9 8.4-9.1 8.4-5.6 0-10.1-2.8-12.8-8l-7.6 7.3c5.4 7.9 11.9 11.3 20.9 11.3 12.2 0 20.8-8.1 20.8-19.6-.2-9.3-4.2-13.6-17.5-18.4m20.9 6.9c0 17.6 13.9 31.2 31.8 31.2 5.1 0 9.3-1 14.7-3.5v-13.7c-4.7 4.7-8.8 6.6-14.2 6.6-11.8 0-20.3-8.5-20.3-20.6 0-11.4 8.6-20.5 19.7-20.5 5.6 0 9.8 2 14.7 6.8v-13.7c-5.2-2.6-9.4-3.7-14.4-3.7-17.6-.1-32 13.7-32 31.1M155 587.6l-16-40.2h-12.8l25.5 61.3h6.3l26-61.3h-12.7L155 587.6m34.4 19.5h33.3v-10h-21.6v-16.2h20.8v-10.1h-20.8v-13.3h21.6v-10.1h-33.3v59.7m56.2-32.2h-3.4v-18.1h3.6c7.4 0 11.3 3.1 11.3 8.8.1 6-3.9 9.3-11.5 9.3zm23.6-9.8c0-11.2-7.8-17.6-21.3-17.6h-17.4v59.7h11.7v-24.1h1.5l16.3 24.1h14.4l-19-25.1c8.9-1.9 13.8-7.9 13.8-17" fill="#0b1720"/>
    <path class="st3" d="M-17.6 663.7v-33.6l23 24.1v-21.9h4.8v33.4l-23-24.1v22.1h-4.8zm52.7-27H22.5v7.6h12.2v4.5H22.5v10.5h12.6v4.5H17.7v-31.5h17.4v4.4zm14.9 0v27h-4.8v-27H38v-4.5h19.2v4.5H50zm14.9-4.5l8.2 21.1 8.5-22.6 8.2 22.6 8.7-21.1h5.2l-14 33.5-8.1-22.3-8.4 22.4-13.4-33.6h5.1zm39.7 15.6c0-4.5 1.6-8.3 4.9-11.4s7.2-4.8 11.6-4.8 8.3 1.6 11.5 4.8c3.2 3.2 4.9 7.1 4.9 11.5 0 4.6-1.6 8.3-4.9 11.5-3.3 3.2-7.2 4.8-11.7 4.8-4.1 0-7.8-1.4-10.9-4.2-3.6-3.1-5.4-7.1-5.4-12.2zm4.8.1c0 3.5 1.2 6.4 3.5 8.5 2.3 2.3 5 3.4 8.1 3.4 3.3 0 6.1-1.1 8.3-3.4 2.3-2.3 3.4-5.1 3.4-8.4 0-3.4-1.1-6.2-3.4-8.4-2.2-2.3-5-3.4-8.3-3.4-3.3 0-6.1 1.1-8.3 3.4-2.1 2.1-3.3 4.9-3.3 8.3zm44.8 2.4l9.7 13.4h-5.8l-8.9-12.9h-1v12.9h-4.8v-31.5h5.6c4.2 0 7.2.8 9 2.4 2.1 1.8 3.1 4.1 3.1 6.9 0 2.2-.6 4.2-1.9 5.8-1.2 1.5-2.9 2.6-5 3zm-6-3.6h1.5c4.5 0 6.8-1.7 6.8-5.2 0-3.2-2.2-4.9-6.6-4.9h-1.7v10.1zm25.2-1.9l12.2-12.5h6.4l-14.2 14.2 14.3 17.2h-6.4l-11.3-14-1 1v13h-4.8v-31.5h4.8v12.6z"/>
    <path d="M-17.6 662.7v-33.6l23 24.1v-21.9h4.8v33.4l-23-24.1v22.1h-4.8zm52.7-27H22.5v7.6h12.2v4.5H22.5v10.5h12.6v4.5H17.7v-31.5h17.4v4.4zm14.9 0v27h-4.8v-27H38v-4.5h19.2v4.5H50zm14.9-4.5l8.2 21.1 8.5-22.6 8.2 22.6 8.7-21.1h5.2l-14 33.5-8.1-22.3-8.4 22.4-13.4-33.6h5.1zm39.7 15.6c0-4.5 1.6-8.3 4.9-11.4s7.2-4.8 11.6-4.8 8.3 1.6 11.5 4.8c3.2 3.2 4.9 7.1 4.9 11.5 0 4.6-1.6 8.3-4.9 11.5-3.3 3.2-7.2 4.8-11.7 4.8-4.1 0-7.8-1.4-10.9-4.2-3.6-3.1-5.4-7.1-5.4-12.2zm4.8.1c0 3.5 1.2 6.4 3.5 8.5 2.3 2.3 5 3.4 8.1 3.4 3.3 0 6.1-1.1 8.3-3.4 2.3-2.3 3.4-5.1 3.4-8.4s-1.1-6.2-3.4-8.4c-2.2-2.3-5-3.4-8.3-3.4-3.3 0-6.1 1.1-8.3 3.4-2.1 2.1-3.3 4.9-3.3 8.3zm44.8 2.4l9.7 13.4h-5.8l-8.9-12.9h-1v12.9h-4.8v-31.5h5.6c4.2 0 7.2.8 9 2.4 2.1 1.8 3.1 4.1 3.1 6.9 0 2.2-.6 4.2-1.9 5.8-1.2 1.5-2.9 2.6-5 3zm-6-3.6h1.5c4.5 0 6.8-1.7 6.8-5.2 0-3.2-2.2-4.9-6.6-4.9h-1.7v10.1zm25.2-1.9l12.2-12.5h6.4l-14.2 14.2 14.3 17.2h-6.4l-11.3-14-1 1v13h-4.8v-31.5h4.8v12.6z" fill="#010101"/>
  </g>
  <g id="mastercard" class="st7">
    <path d="M50.1 541.2h69.8v143.7H50.1z" fill="#ff5f00"/>
    <path id="XMLID_330_" d="M50.1 613c0-29.1 13.6-55.1 34.9-71.8-15.5-12.2-35.2-19.5-56.5-19.5-50.5 0-91.4 40.9-91.4 91.4 0 50.5 40.9 91.4 91.4 91.4 21.3 0 40.9-7.3 56.5-19.5-21.3-16.9-34.9-42.9-34.9-72z" fill="#eb001b"/>
    <path d="M232.8 613c0 50.5-40.9 91.4-91.4 91.4-21.3 0-40.9-7.3-56.5-19.5 21.3-16.7 34.9-42.7 34.9-71.8s-13.6-55.1-34.9-71.8c15.5-12.2 35.2-19.5 56.5-19.5 50.5-.2 91.4 40.7 91.4 91.2zm-8.7 56.6v-2.9h1.2v-.6h-3v.6h1.2v2.9h.6zm5.9 0v-3.5h-.9l-1.1 2.4-1.1-2.4h-.9v3.5h.7v-2.7l1 2.3h.7l1-2.3v2.7h.6z" fill="#f79e1b"/>
  </g>
  <g id="Visa" class="st7">
    <path d="M-12.5 576.5L6.7 463.7h30.8L18.2 576.5h-30.7zm142.3-110c-6.1-2.3-15.6-4.7-27.6-4.7-30.4 0-51.8 15.3-52 37.2-.2 16.2 15.3 25.3 27 30.7 12 5.5 16 9.1 16 14-.1 7.6-9.6 11-18.4 11-12.3 0-18.8-1.7-29-5.9l-4-1.8-4.3 25.3c7.2 3.1 20.5 5.9 34.3 6 32.3 0 53.3-15.1 53.6-38.6.1-12.8-8.1-22.6-25.8-30.7-10.8-5.2-17.4-8.7-17.3-14 0-4.7 5.6-9.7 17.6-9.7 10.1-.2 17.4 2 23 4.3l2.8 1.3 4.1-24.4zm78.9-2.7h-23.8c-7.4 0-12.9 2-16.1 9.4l-45.7 103.4h32.3s5.3-13.9 6.5-17c3.5 0 34.9.1 39.4.1.9 3.9 3.7 16.9 3.7 16.9h28.6l-24.9-112.8zm-37.9 72.7c2.5-6.5 12.3-31.6 12.3-31.6-.2.3 2.5-6.5 4.1-10.8l2.1 9.7s5.9 26.9 7.1 32.6l-25.6.1zm-209.1-72.7l-30.1 77-3.2-15.6c-5.6-18-23.1-37.6-42.6-47.4l27.5 98.7h32.6l48.4-112.7h-32.6z" transform="translate(40 93)" fill="#005098"/>
    <path d="M-96.4 463.6H-146l-.4 2.3c38.6 9.3 64.1 31.9 74.7 59.1l-10.8-51.9c-1.8-7-7.2-9.2-13.9-9.5z" transform="translate(40 93)" fill="#f6a500"/>
  </g>
  <g id="Amex">
    <linearGradient id="SVGID_4_" gradientUnits="userSpaceOnUse" x1="-7.375" y1="1280.876" x2="-7.375" y2="1597.857" gradientTransform="translate(91 -832.5)">
      <stop offset="0" stop-color="#2e77bc"/>
      <stop offset=".877" stop-color="#0da6e0"/>
    </linearGradient>
    <path d="M320.9 731.7c0 16.3-13.3 29.7-29.7 29.7H-124c-16.3 0-29.7-13.3-29.7-29.7V494.3c0-16.3 13.3-29.7 29.7-29.7h415.3c16.3 0 29.7 13.3 29.7 29.7v237.4z" fill="url(#SVGID_4_)"/>
    <path class="st2" d="M-123.9 466.7h415c16.4 0 29.8 13.3 29.8 29.7v-1c0-16.3-13.4-29.7-29.8-29.7h-415c-16.3 0-29.8 13.3-29.8 29.7v1c0-16.4 13.5-29.7 29.8-29.7zm414.2 292.6H-123c-16.3 0-29.7-13.3-29.7-29.7v1c0 16.3 13.3 29.7 29.7 29.7h413.3c16.3 0 29.7-13.3 29.7-29.7v-1c-.1 16.4-13.4 29.7-29.7 29.7z"/>
    <path class="st14" d="M-66.1 582.8l-6.8-16.9-6.8 16.9M85.1 576c-1.4.9-3 .9-4.9.9H68v-9.4h12.4c1.8 0 3.6.1 4.7.8 1.3.6 2.1 2 2.1 3.8 0 1.7-.8 3.2-2.1 3.9m86.8 6.8l-6.9-16.9-6.9 16.9h13.8zM10 601.1H-.3v-33.3l-14.5 33.3h-8.8l-14.5-33.3v33.3h-20.4l-3.9-9.5h-20.9l-3.9 9.5H-98l18-42.5h14.9l17 40.2v-40.2h16.3l13.2 28.9 12.1-28.9h16.7v42.5H10zm41 0H17.5v-42.5H51v8.9H27.6v7.6h22.9v8.7H27.6v8.5H51v8.8zm47.2-31c0 6.8-4.4 10.3-7 11.4 2.2.9 4.1 2.4 4.9 3.6 1.4 2.1 1.7 4 1.7 7.8v8.3H87.6v-5.3c0-2.6.2-6.2-1.6-8.3-1.5-1.5-3.7-1.8-7.3-1.8H67.9v15.4h-10v-42.5h23c5.1 0 8.9.1 12.2 2.1 3.2 1.8 5.1 4.5 5.1 9.3m16.1 31h-10.2v-42.5h10.2v42.5zm118.6 0h-14.2l-19-31.9v31.9h-20.4l-3.9-9.5h-20.9l-3.8 9.5H139c-4.8 0-11.1-1.1-14.5-4.7-3.6-3.7-5.3-8.5-5.3-16.2 0-6.3 1.1-12.1 5.4-16.6 3.3-3.4 8.3-4.9 15.2-4.9h9.7v9.1H140c-3.7 0-5.7.6-7.7 2.5-1.7 1.8-2.9 5.1-2.9 9.6s.9 7.8 2.8 10c1.6 1.7 4.4 2.2 7 2.2h4.5l14-33.3h15l17 40.2v-40.2H205l17.6 29.6v-29.6h10.3v42.3zm-331.1 8.4h17.1l3.9-9.5h8.6l3.9 9.5H-31v-7.2l3 7.2h17.5l3-7.3v7.3h83.7V594h1.6c1.1 0 1.5.1 1.5 2.1v13.4h43.3V606c3.5 1.9 8.9 3.6 16.1 3.6h18.2l3.9-9.5h8.6l3.9 9.5h35.1v-9l5.3 9H242v-59.3h-27.9v7l-3.9-7h-28.6v7l-3.6-7h-38.6c-6.4 0-12.2.9-16.7 3.5v-3.5H96.1v3.5c-3-2.7-6.9-3.5-11.3-3.5h-97.3l-6.7 15.3-6.7-15.3h-30.7v7l-3.4-7h-26l-12.2 28.2-13.9 31.1h13.9z"/>
    <path class="st3" d="M-66.1 583.8l-6.8-16.9-6.8 16.9M85.1 577c-1.4.9-3 .9-4.9.9H68v-9.4h12.4c1.8 0 3.6.1 4.7.8 1.3.6 2.1 2 2.1 3.8 0 1.7-.8 3.2-2.1 3.9m86.8 6.8l-6.9-16.9-6.9 16.9h13.8zM10 602.1H-.3v-33.3l-14.5 33.3h-8.8l-14.5-33.3v33.3h-20.4l-3.9-9.5h-20.9l-3.9 9.5H-98l18-42.5h14.9l17 40.2v-40.2h16.3l13.2 28.9 12.1-28.9h16.7v42.5H10zm41 0H17.5v-42.5H51v8.9H27.6v7.6h22.9v8.7H27.6v8.5H51v8.8zm47.2-31c0 6.8-4.4 10.3-7 11.4 2.2.9 4.1 2.4 4.9 3.6 1.4 2.1 1.7 4 1.7 7.8v8.3H87.6v-5.3c0-2.6.2-6.2-1.6-8.3-1.5-1.5-3.7-1.8-7.3-1.8H67.9v15.4h-10v-42.5h23c5.1 0 8.9.1 12.2 2.1 3.2 1.8 5.1 4.5 5.1 9.3m16.1 31h-10.2v-42.5h10.2v42.5zm118.6 0h-14.2l-19-31.9v31.9h-20.4l-3.9-9.5h-20.9l-3.8 9.5H139c-4.8 0-11.1-1.1-14.5-4.7-3.6-3.7-5.3-8.5-5.3-16.2 0-6.3 1.1-12.1 5.4-16.6 3.3-3.4 8.3-4.9 15.2-4.9h9.7v9.1H140c-3.7 0-5.7.6-7.7 2.5-1.7 1.8-2.9 5.1-2.9 9.6s.9 7.8 2.8 10c1.6 1.7 4.4 2.2 7 2.2h4.5l14-33.3h15l17 40.2v-40.2H205l17.6 29.6v-29.6h10.3v42.3zm-331.1 8.4h17.1l3.9-9.5h8.6l3.9 9.5H-31v-7.2l3 7.2h17.5l3-7.3v7.3h83.7V595h1.6c1.1 0 1.5.1 1.5 2.1v13.4h43.3V607c3.5 1.9 8.9 3.6 16.1 3.6h18.2l3.9-9.5h8.6l3.9 9.5h35.1v-9l5.3 9H242v-59.3h-27.9v7l-3.9-7h-28.6v7l-3.6-7h-38.6c-6.4 0-12.2.9-16.7 3.5v-3.5H96.1v3.5c-3-2.7-6.9-3.5-11.3-3.5h-97.3l-6.7 15.3-6.7-15.3h-30.7v7l-3.4-7h-26l-12.2 28.2-13.9 31.1h13.9z"/>
    <path class="st14" d="M264.3 649.6v-27.2h-25.1c-5.6 0-9.7 1.4-12.6 3.5v-3.5h-27.5c-4.4 0-9.6 1.1-12 3.5v-3.5h-49v3.5c-3.9-2.9-10.5-3.5-13.5-3.5H92.2v3.5c-3.1-3.1-10-3.5-14.1-3.5H41.9l-8.3 9.1-7.7-9.1h-54v59.3h53l8.5-9.2 8 9.2h32.7v-13.9h3.3c4.4.1 9.5-.1 13.9-2.1v16h27v-15.4h1.3c1.7 0 1.8.1 1.8 1.8v13.7h82c5.2 0 10.7-1.4 13.6-3.8v3.8h26c5.4 0 10.7-.8 14.7-2.8 5.8-3.8 9.8-10.4 9.8-18 0-4.3-1.1-8.2-3.2-11.4zm-186.4 9.5H65.3v14.2H45.9l-12.4-14-12.9 14h-39.7v-42.5h40.4l12.4 13.9 12.8-13.9h32c7.9 0 16.9 2.3 16.9 14-.1 11.8-8.8 14.3-17.5 14.3zm60.3-1.9c1.4 2.1 1.6 4.1 1.7 7.7v8.4h-10.1V668c0-2.6.2-6.3-1.6-8.3-1.5-1.5-3.7-1.9-7.3-1.9h-10.7v15.5h-10.1v-42.5h23c5 0 8.8.2 12.1 2 3.2 2 5.1 4.5 5.1 9.4 0 6.8-4.4 10.3-7.1 11.3 2.3.9 4.2 2.4 5 3.7zm41.2-17.6h-23.5v7.7h22.9v8.7h-22.9v8.5h23.5v8.8h-33.5v-42.5h33.5v8.8zm25.6 33.7h-19.6v-9.1h19.5c1.9 0 3.3-.3 4.1-1.1.7-.7 1.2-1.6 1.2-2.8 0-1.3-.5-2.2-1.2-2.8-.8-.7-1.8-1-3.6-1-9.4-.3-21.2.3-21.2-13.2 0-6.1 3.9-12.7 14.3-12.7h20.1v9h-18.4c-1.8 0-3 .1-4.1.8-1.1.7-1.5 1.7-1.5 3.1 0 1.6.9 2.7 2.2 3.2 1.1.4 2.2.5 3.9.5l5.4.1c5.4.1 9.2 1.1 11.5 3.5 2 2.1 3 4.6 3 9 .2 9.3-5.5 13.5-15.6 13.5zm51.7-4c-2.7 2.7-6.9 4.1-12.5 4.1h-19.4v-9.1h19.3c1.9 0 3.3-.3 4.1-1.1.7-.7 1.2-1.6 1.2-2.8 0-1.3-.5-2.2-1.2-2.8-.7-.7-1.8-1-3.6-1-9.4-.3-21.2.3-21.2-13.2 0-6.1 3.9-12.7 14.4-12.7h19.6v9h-17.9c-1.8 0-3.1.1-4.1.8-1.1.7-1.5 1.7-1.5 3.1 0 1.6.9 2.7 2.2 3.2 1.1.4 2.2.5 3.9.5l5.4.1c5.4.1 9.2 1.1 11.4 3.5.4.3.7.7.9 1.1-.1-.1-.2-.3-.3-.4 1.8 2.4 2.8 5.2 2.8 8.4 0 3.5-1.4 6.8-3.5 9.3zM16.1 639.6l11 12.4-11.5 12.5H-9V656h22v-8.7H-9v-7.7h25.1zm23.8 12.6l15.4-16.7v34.1l-15.4-17.4zm44.7-7.4c0 3.7-2.4 5.6-6.2 5.6h-13v-10.8h13.1c3.5 0 6.1 1.6 6.1 5.2zm44.7-.6c0 1.8-.8 3.3-2.1 4.1-1.4.8-3 .9-4.9.9h-12.2v-9.6h12.4c1.8 0 3.6 0 4.7.8 1.3.7 2.1 2 2.1 3.8z"/>
    <path class="st3" d="M264.3 650.6v-27.2h-25.1c-5.6 0-9.7 1.4-12.6 3.5v-3.5h-27.5c-4.4 0-9.6 1.1-12 3.5v-3.5h-49v3.5c-3.9-2.9-10.5-3.5-13.5-3.5H92.2v3.5c-3.1-3.1-10-3.5-14.1-3.5H41.9l-8.3 9.1-7.7-9.1h-54v59.3h53l8.5-9.2 8 9.2h32.7v-13.9h3.3c4.4.1 9.5-.1 13.9-2.1v16h27v-15.4h1.3c1.7 0 1.8.1 1.8 1.8v13.7h82c5.2 0 10.7-1.4 13.6-3.8v3.8h26c5.4 0 10.7-.8 14.7-2.8v-.1c5.8-3.8 9.8-10.4 9.8-18 0-4.2-1.1-8.1-3.2-11.3zm-186.4 9.5H65.3v14.2H45.9l-12.4-14-12.9 14h-39.7v-42.5h40.4l12.4 13.9 12.8-13.9h32c7.9 0 16.9 2.3 16.9 14-.1 11.8-8.8 14.3-17.5 14.3zm60.3-1.9c1.4 2.1 1.6 4.1 1.7 7.7v8.4h-10.1V669c0-2.6.2-6.3-1.6-8.3-1.5-1.5-3.7-1.9-7.3-1.9h-10.7v15.5h-10.1v-42.5h23c5 0 8.8.2 12.1 2 3.2 2 5.1 4.5 5.1 9.4 0 6.8-4.4 10.3-7.1 11.3 2.3.9 4.2 2.4 5 3.7zm41.2-17.6h-23.5v7.7h22.9v8.7h-22.9v8.5h23.5v8.8h-33.5v-42.5h33.5v8.8zm25.6 33.7h-19.6v-9.1h19.5c1.9 0 3.3-.3 4.1-1.1.7-.7 1.2-1.6 1.2-2.8 0-1.3-.5-2.2-1.2-2.8-.8-.7-1.8-1-3.6-1-9.4-.3-21.2.3-21.2-13.2 0-6.1 3.9-12.7 14.3-12.7h20.1v9h-18.4c-1.8 0-3 .1-4.1.8-1.1.7-1.5 1.7-1.5 3.1 0 1.6.9 2.7 2.2 3.2 1.1.4 2.2.5 3.9.5l5.4.1c5.4.1 9.2 1.1 11.5 3.5 2 2.1 3 4.6 3 9 .2 9.3-5.5 13.5-15.6 13.5zm51.7-4c-2.7 2.7-6.9 4.1-12.5 4.1h-19.4v-9.1h19.3c1.9 0 3.3-.3 4.1-1.1.7-.7 1.2-1.6 1.2-2.8 0-1.3-.5-2.2-1.2-2.8-.7-.7-1.8-1-3.6-1-9.4-.3-21.2.3-21.2-13.2 0-6.1 3.9-12.7 14.4-12.7h19.6v9h-17.9c-1.8 0-3.1.1-4.1.8-1.1.7-1.5 1.7-1.5 3.1 0 1.6.9 2.7 2.2 3.2 1.1.4 2.2.5 3.9.5l5.4.1c5.4.1 9.2 1.1 11.4 3.5.4.3.7.7.9 1.1-.1-.1-.2-.3-.3-.4 1.8 2.4 2.8 5.2 2.8 8.4 0 3.5-1.4 6.8-3.5 9.3zM16.1 640.6l11 12.4-11.5 12.5H-9V657h22v-8.7H-9v-7.7h25.1zm23.8 12.5l15.4-16.7v34.1l-15.4-17.4zm44.7-7.3c0 3.7-2.4 5.6-6.2 5.6h-13v-10.8h13.1c3.5 0 6.1 1.6 6.1 5.2zm44.7-.6c0 1.8-.8 3.3-2.1 4.1-1.4.8-3 .9-4.9.9h-12.2v-9.6h12.4c1.8 0 3.6 0 4.7.8 1.3.7 2.1 2 2.1 3.8z"/>
  </g>
  <path id="outline" d="M290.7 463.1h-414.1c-17.4 0-31.6 14.2-31.6 31.6v236.6c0 17.4 14.2 31.6 31.6 31.6h414.1c17.4 0 31.6-14.2 31.6-31.6V494.7c-.1-17.4-14.2-31.6-31.6-31.6zm0 294.8h-414.1c-14.7 0-26.6-11.9-26.6-26.6V494.7c0-14.7 11.9-26.6 26.6-26.6h414.1c14.7 0 26.6 11.9 26.6 26.6v236.6c0 14.7-12 26.6-26.6 26.6z" fill="#999"/>
</svg>