<?xml version="1.0" encoding="iso-8859-1"?>
<!-- Generator: Adobe Illustrator 19.0.0, SVG Export Plug-In . SVG Version: 6.00 Build 0)  -->
<svg version="1.1" id="Layer_1" xmlns="http://www.w3.org/2000/svg" xmlns:xlink="http://www.w3.org/1999/xlink" x="0px" y="0px"
	 viewBox="0 0 512 512" style="enable-background:new 0 0 512 512;" xml:space="preserve">
<path style="fill:#A9A8AE;" d="M384,51.2H25.6C11.462,51.2,0,62.662,0,76.8v256c0,14.136,11.462,25.6,25.6,25.6h76.8h307.2V153.6
	V76.8C409.6,62.662,398.138,51.2,384,51.2z"/>
<path style="fill:#D6D5D8;" d="M486.4,153.6h-76.8H384h-25.6h-51.2H128c-7.953,0-15.058,3.627-19.755,9.315
	c-2.087,2.529-3.698,5.465-4.695,8.672c-0.748,2.405-1.15,4.963-1.15,7.613v102.397V307.2v25.6v25.6v76.8
	c0,14.136,11.462,25.6,25.6,25.6h179.2h179.2c14.138,0,25.6-11.464,25.6-25.6V281.597V179.2C512,165.062,500.538,153.6,486.4,153.6z
	"/>
<path style="fill:#5286F9;" d="M486.4,153.6h-76.8H384h-25.6h-51.2H128c-14.138,0-25.6,11.462-25.6,25.6v102.397
	c0,14.14,11.462,25.6,25.6,25.6h25.6h17.07H307.2h153.6h25.6c14.138,0,25.6-11.46,25.6-25.6V179.2
	C512,165.062,500.538,153.6,486.4,153.6z"/>
<path style="fill:#C3C3C7;" d="M170.67,307.197H153.6H128c-14.138,0-25.6-11.46-25.6-25.6V307.2v25.6v25.6v76.8
	c0,14.136,11.462,25.6,25.6,25.6h179.2V307.197H170.67z"/>
<path style="fill:#3D6DEB;" d="M128,153.6c-14.138,0-25.6,11.462-25.6,25.6v102.397c0,14.14,11.462,25.6,25.6,25.6h25.6h17.07H307.2
	V153.6H128z"/>
<g>
</g>
<g>
</g>
<g>
</g>
<g>
</g>
<g>
</g>
<g>
</g>
<g>
</g>
<g>
</g>
<g>
</g>
<g>
</g>
<g>
</g>
<g>
</g>
<g>
</g>
<g>
</g>
<g>
</g>
</svg>
