<svg xmlns="http://www.w3.org/2000/svg" viewBox="-155 463 477.2 300">
  <path d="M290.7 463.1h-414.1c-17.4 0-31.6 14.2-31.6 31.6v236.6c0 17.4 14.2 31.6 31.6 31.6h414.1c17.4 0 31.6-14.2 31.6-31.6V494.7c-.1-17.4-14.2-31.6-31.6-31.6zm0 294.8h-414.1c-14.7 0-26.6-11.9-26.6-26.6V494.7c0-14.7 11.9-26.6 26.6-26.6h414.1c14.7 0 26.6 11.9 26.6 26.6v236.6c0 14.7-12 26.6-26.6 26.6z" fill="#999"/>
  <path d="M27.5 669.5l19.2-112.8h30.8L58.2 669.5H27.5zm142.3-110c-6.1-2.3-15.6-4.7-27.6-4.7-30.4 0-51.8 15.3-52 37.2-.2 16.2 15.3 25.3 27 30.7 12 5.5 16 9.1 16 14-.1 7.6-9.6 11-18.4 11-12.3 0-18.8-1.7-29-5.9l-4-1.8-4.3 25.3c7.2 3.1 20.5 5.9 34.3 6 32.3 0 53.3-15.1 53.6-38.6.1-12.8-8.1-22.6-25.8-30.7-10.8-5.2-17.4-8.7-17.3-14 0-4.7 5.6-9.7 17.6-9.7 10.1-.2 17.4 2 23 4.3l2.8 1.3 4.1-24.4zm78.9-2.7h-23.8c-7.4 0-12.9 2-16.1 9.4l-45.7 103.4h32.3s5.3-13.9 6.5-17c3.5 0 34.9.1 39.4.1.9 3.9 3.7 16.9 3.7 16.9h28.6l-24.9-112.8zm-37.9 72.7c2.5-6.5 12.3-31.6 12.3-31.6-.2.3 2.5-6.5 4.1-10.8l2.1 9.7s5.9 26.9 7.1 32.6l-25.6.1zM1.7 556.8l-30.1 77-3.2-15.6c-5.6-18-23.1-37.6-42.6-47.4l27.5 98.7h32.6l48.4-112.7H1.7z" fill="#005098"/>
  <path d="M-56.4 556.6H-106l-.4 2.3c38.6 9.3 64.1 31.9 74.7 59.1l-10.8-51.9c-1.8-7-7.2-9.2-13.9-9.5z" fill="#f6a500"/>
</svg>