<svg width="25" height="25" viewBox="0 0 25 25" fill="none" xmlns="http://www.w3.org/2000/svg">
<path d="M2.77778 0.5H22.2222C23.4739 0.5 24.5 1.52614 24.5 2.77778V22.2222C24.5 23.4739 23.4739 24.5 22.2222 24.5H2.77778C1.52614 24.5 0.5 23.4739 0.5 22.2222V2.77778C0.5 1.52614 1.52614 0.5 2.77778 0.5ZM18.0556 14.3889C19.0988 14.3889 19.9444 13.5432 19.9444 12.5C19.9444 11.4568 19.0988 10.6111 18.0556 10.6111H6.94444C5.90124 10.6111 5.05556 11.4568 5.05556 12.5C5.05556 13.5432 5.90124 14.3889 6.94445 14.3889H18.0556Z" fill="#938F8F" fill-opacity="0.62" stroke="#B7B7B7"/>
</svg>
