<svg width="25" height="25" viewBox="0 0 25 25" fill="none" xmlns="http://www.w3.org/2000/svg">
<path d="M0 3.125C0 2.2962 0.32924 1.50134 0.915291 0.915291C1.50134 0.32924 2.2962 0 3.125 0L21.875 0C22.7038 0 23.4987 0.32924 24.0847 0.915291C24.6708 1.50134 25 2.2962 25 3.125V21.875C25 22.7038 24.6708 23.4987 24.0847 24.0847C23.4987 24.6708 22.7038 25 21.875 25H3.125C2.2962 25 1.50134 24.6708 0.915291 24.0847C0.32924 23.4987 0 22.7038 0 21.875L0 3.125ZM7.03125 13.2812H11.7188L11.7188 17.9688C11.7188 18.1759 11.8011 18.3747 11.9476 18.5212C12.0941 18.6677 12.2928 18.75 12.5 18.75C12.7072 18.75 12.9059 18.6677 13.0524 18.5212C13.1989 18.3747 13.2813 18.1759 13.2813 17.9688L13.2812 13.2812L17.9688 13.2812C18.176 13.2812 18.3747 13.1989 18.5212 13.0524C18.6677 12.9059 18.75 12.7072 18.75 12.5C18.75 12.2928 18.6677 12.0941 18.5212 11.9476C18.3747 11.8011 18.176 11.7187 17.9688 11.7187L13.2812 11.7188V7.03125C13.2812 6.82405 13.1989 6.62534 13.0524 6.47882C12.9059 6.33231 12.7072 6.25 12.5 6.25C12.2928 6.25 12.0941 6.33231 11.9476 6.47882C11.8011 6.62534 11.7188 6.82405 11.7188 7.03125V11.7188H7.03125C6.82405 11.7188 6.62534 11.8011 6.47882 11.9476C6.33231 12.0941 6.25 12.2928 6.25 12.5C6.25 12.7072 6.33231 12.9059 6.47882 13.0524C6.62534 13.1989 6.82405 13.2812 7.03125 13.2812Z" fill="#3D9AC2"/>
<path d="M5 1H20V-1H5V1ZM24 5V20H26V5H24ZM20 24H5V26H20V24ZM1 20V5H-1V20H1ZM5 24C2.79086 24 1 22.2091 1 20H-1C-1 23.3137 1.68629 26 5 26V24ZM24 20C24 22.2091 22.2091 24 20 24V26C23.3137 26 26 23.3137 26 20H24ZM20 1C22.2091 1 24 2.79086 24 5H26C26 1.68629 23.3137 -1 20 -1V1ZM5 -1C1.68629 -1 -1 1.68629 -1 5H1C1 2.79086 2.79086 1 5 1V-1Z" fill="#32A7DA"/>
</svg>
