<svg width="34" height="63" viewBox="0 0 34 63" fill="none" xmlns="http://www.w3.org/2000/svg">
<path d="M18.5439 20.7649C18.5439 22.7889 20.3879 24.9549 22.7789 24.9549L22.7789 59.1189C22.7789 63.9699 29.3889 63.9699 29.3889 59.1189L29.3889 24.9549C31.7169 24.9549 33.7439 23.1619 33.7439 20.4759V1.67389C33.7439 0.0378907 31.3799 -0.0241092 31.3799 1.73789V15.6359H29.3999V1.60989C29.3999 0.106891 27.1219 0.0108907 27.1219 1.67389V15.6369L25.0759 15.6369V1.62989C25.0759 0.0578907 22.8659 -0.00510931 22.8659 1.69189V15.6369H20.8529V1.62989C20.8529 0.0738907 18.5439 0.0128907 18.5439 1.69189V20.7659V20.7649ZM0.910896 6.04489L0.910896 59.1039C0.910896 63.8469 7.5349 63.7769 7.5349 59.1039L7.5349 38.0509H11.0609L11.0609 6.04489C11.0609 -1.40611 0.909897 -1.40611 0.909897 6.04489H0.910896Z" fill="white"/>
</svg>
